<?xml version="1.0" encoding="utf-8"?>
<!--Generator: Adobe Illustrator 25.0.1, SVG Export Plug-In . SVG Version: 6.00 Build 0)-->
<svg version="1.0" id="katman_1" xmlns="http://www.w3.org/2000/svg" x="0px" y="0px" viewBox="0 0 800 600" style="enable-background:new 0 0 800 600;" xml:space="preserve">
  <style>
    .st0{fill:#8D6A59;}
	.st1{opacity:0.2;enable-background:new    ;}
	.st2{opacity:0.3;fill:#FFFFFF;enable-background:new    ;}
	.st3{fill:#E36566;}
	.st4{fill:#7F00FF;}
	.st5{fill:#394049;}
	.st6{opacity:0.3;enable-background:new    ;}
	.st7{opacity:0.15;enable-background:new    ;}
	.st8{fill:#F6CDB5;}
  </style>
  <path class="st0" d="m525.5 533.1-56.1-23.2 69.2-167.5c1.7-4.1 6.5-6.1 10.6-4.4l41.2 17c4.1 1.7 6.1 6.5 4.4 10.6l-69.3 167.5z"/>
  <path class="st1" d="M579.6 401.8 540.4 417l-16.9-38.3-7.3 17.5 11.4 25.8-26.2 10.2-7.3 17.5 39.2-15.2 17 38.4 7.2-17.5-11.4-25.8 26.3-10.2z"/>
  <path class="st2" d="m583.3 393.1-56.1-23.2 11.4-27.5c1.7-4.1 6.5-6.1 10.6-4.4l41.2 17c4.1 1.7 6.1 6.5 4.4 10.6l-11.5 27.5z"/>
  <path class="st3" d="M226.5 411.4c26.3-33.4 38-68.8 34.8-105.1l46-4.1c2.9 32.6-3.1 64.9-18 95.9-9.4 19.7-20.2 34.2-27 42.7-2.3 2.8-6.5 3.3-9.2.9l-25.4-21.2c-3-2.4-3.3-6.4-1.2-9.1z"/>
  <path class="st4" d="M226.5 411.4c26.3-33.4 38-68.8 34.8-105.1l46-4.1c2.9 32.6-3.1 64.9-18 95.9-9.4 19.7-20.2 34.2-27 42.7-2.3 2.8-6.5 3.3-9.2.9l-25.4-21.2c-3-2.4-3.3-6.4-1.2-9.1z"/>
  <path class="st4" d="M197.6 354.8c38.7-17.7 65.3-43.8 78.9-77.6l42.8 17.3c-12.3 30.3-32.4 56.2-59.8 77-17.3 13.2-33.5 21.1-43.6 25.6-3.3 1.5-7.3-.1-8.7-3.4l-12.9-30.4c-1.4-3.2.1-6.9 3.3-8.5z"/>
  <path class="st5" d="M294.5 440.2c-67.4 10.8-77 71.1-78 96.8-.3 6.3 4.9 11.6 11.2 11.6h66.8V440.2z"/>
  <path class="st6" d="M284.5 442.2c-27.9 27.4-45.8 64.7-47.6 106.4h57.7V440.2c-3.6.5-6.9 1.3-10.1 2z"/>
  <path class="st5" d="M527.9 440.2c67.4 10.8 77 71.1 78 96.8.3 6.3-4.9 11.6-11.2 11.6h-66.8V440.2z"/>
  <path class="st6" d="M538.1 442.2c27.9 27.3 45.8 64.7 47.6 106.3H528V440.2c3.5.5 6.9 1.3 10.1 2z"/>
  <path class="st5" d="M569.7 548.6c0-87.8-71.2-159-159-159s-159 71.2-159 159h318z"/>
  <path class="st7" d="M410.8 389.7c-46.1 0-87.5 19.6-116.6 50.9 31.9 25.7 72.4 41.1 116.6 41.1s84.7-15.4 116.6-41.1c-29.1-31.3-70.6-50.9-116.6-50.9z"/>
  <circle class="st5" cx="411.2" cy="266.5" r="185.9"/>
  <path class="st8" d="M525.6 276.8H295.9c-15.9 0-28.7-12.9-28.7-28.7 0-15.9 12.9-28.7 28.7-28.7h229.8c15.9 0 28.7 12.9 28.7 28.7.1 15.8-12.8 28.7-28.8 28.7z"/>
  <path class="st4" d="M572.3 173.5H250.2c-8.2 14.2-14.6 29.6-18.8 45.8h359.8c-4.3-16.3-10.7-31.7-18.9-45.8z"/>
  <path d="M598 480.7c-7.4-13.3-17.4-23.7-29.7-31.5l32.8-78.2c3.2-7.6-.5-16.4-8.3-19.6l-5.7-2.4c11-23.9 17.1-50.5 17.1-78.4 0-104.9-86.6-190.1-193.1-190.1s-193 85.4-193 190.2c0 21.3 3.6 41.8 10.2 61-9.9 7.4-21.2 14.1-33.7 19.8-6.8 3-9.8 10.6-6.9 17.4l12.9 30c1.4 3.3 4.1 5.9 7.5 7.3 1.6.7 3.3.9 5 .9 1.9 0 3.8-.4 5.6-1.1 2.4-1 4.9-2.2 7.3-3.4-1.6 2.2-3.3 4.4-5 6.6-4.6 5.7-3.8 13.9 2 18.6l25.4 20.9c1 .8 2.3 1.5 3.5 2.1-11.2 7.5-20.3 17.6-27.3 29.9-11.3 20.1-14.4 41.7-15 56.3-.2 4.9 1.6 9.6 5.1 13.2 3.5 3.6 8.2 5.6 13.2 5.6h341.9c.3 0 .7 0 .9-.1v.1h24c5 0 9.7-2 13.2-5.6s5.3-8.2 5.1-13.2c-.6-14.6-3.6-36.3-15-56.3zm-42.1-38.2c-7.8-3.4-16.3-5.8-25.5-7.3-2.8-2.9-5.8-5.7-8.9-8.4 13.9-9.6 26.6-20.9 37.5-33.7l15.1 6.1-18.2 43.3zm31.6-78.2c.6.2.8.8.6 1.4l-8.7 20.6-11.5-4.7c4.7-6.4 8.9-13.1 12.8-20.1l6.8 2.8zM411.2 94.4c61.6 0 116 30.8 148.1 77.6H263c32.3-46.8 86.7-77.6 148.2-77.6zM254.4 186H568c5.6 9.9 10.1 20.3 13.7 31.2H240.8c3.5-10.9 8.1-21.3 13.6-31.2zm293 66.5c0 11.8-9.7 21.4-21.7 21.4H295.9c-12 0-21.7-9.6-21.7-21.4s9.7-21.4 21.7-21.4h229.8c11.9 0 21.7 9.6 21.7 21.4zm-310.5-21.4h30.5c-4.6 5.9-7.3 13.4-7.3 21.4 0 19.5 16.1 35.3 35.8 35.3h229.8c19.8 0 35.8-15.8 35.8-35.3 0-8-2.7-15.4-7.3-21.4h31.5c3 12.7 4.5 26 4.5 39.6 0 97.2-80.2 176.3-178.9 176.3s-179.1-79.2-179.1-176.3c.2-13.6 1.8-26.9 4.7-39.6zm63.7 195.3c-3.3 2.9-6.5 5.9-9.5 8.9-6.4 1.1-12.5 2.7-18.2 4.8 5.7-7.4 10.8-15.2 15.4-23.1 3.9 3.4 8 6.5 12.3 9.4zM213.4 393 201 363.9c12-5.5 22.9-11.7 32.7-18.7 4.2 9.8 9.3 19.2 15.2 28.2-11 7.4-22.8 14-35.5 19.6zm19 24.4c7.5-9.4 13.9-19.2 19.2-29 1.8-1.1 3.6-2.4 5.3-3.6 6.2 8.2 13.1 15.8 20.5 22.9-5.8 10.3-12.7 20.4-20.4 29.9l-24.6-20.2zm-4.5 124.3c-1.1 0-2.2-.5-3-1.2-.5-.5-1.2-1.5-1.1-2.9.4-10.7 2.6-31.6 13.2-50.1 8.8-15.5 21.7-26.7 38.3-33.2-18.4 25.4-28.9 55.7-30.2 87.5l-17.2-.1zm31.1 0c2-41.8 21.3-80.4 53.8-107.5 28.8 16.9 62.4 26.7 98.4 26.7 35.7 0 69.1-9.6 97.9-26.3 32.3 27 51.5 65.5 53.4 107.1H259zm338.7-1.2c-.8.8-1.9 1.2-3 1.2h-18.1c-1.3-32.1-12.1-62.5-30.7-88.1 17.3 6.5 30.7 17.8 39.7 33.7 10.5 18.6 12.7 39.4 13.2 50.1.1 1.7-.6 2.6-1.1 3.1z"/>
  <circle cx="328.8" cy="251.3" r="10.6"/>
  <circle cx="489.6" cy="251.3" r="10.6"/>
</svg>
