<svg width="24" height="24" viewBox="0 0 24 24" fill="none" xmlns="http://www.w3.org/2000/svg">
<path d="M5.4593 10.9552L11 5.41446V21.0002C11 21.5525 11.4478 22.0002 12 22.0002C12.5523 22.0002 13 21.5525 13 21.0002V5.41446L18.5408 10.9552C18.9313 11.3457 19.5645 11.3457 19.955 10.9552C20.3455 10.5647 20.3455 9.93151 19.955 9.54098L12.7072 2.29314C12.3166 1.90261 11.6835 1.90261 11.2929 2.29314L4.04509 9.54098C3.84915 9.73692 3.75152 9.99394 3.7522 10.2507C3.75237 10.3138 3.75847 10.3769 3.7705 10.4391C3.80711 10.6282 3.89864 10.8087 4.04509 10.9552C4.43561 11.3457 5.06878 11.3457 5.4593 10.9552Z" fill="#6F7381"/>
</svg>
