<svg width="24" height="24" viewBox="0 0 24 24" fill="none" xmlns="http://www.w3.org/2000/svg">
<path d="M8.11512 6.63623H15.9509L4.9301 17.657C4.85087 17.7363 4.78771 17.8255 4.74063 17.9206C4.61367 18.1772 4.6036 18.477 4.71043 18.7404C4.75925 18.8608 4.83247 18.9736 4.9301 19.0713C5.32062 19.4618 5.95379 19.4618 6.34431 19.0713L17.3651 8.05044V15.8862C17.3651 16.4385 17.8128 16.8862 18.3651 16.8862C18.9174 16.8862 19.3651 16.4385 19.3651 15.8862V5.63623C19.3651 5.60171 19.3634 5.5676 19.36 5.53399C19.3099 5.04108 18.9019 4.654 18.3999 4.63683C18.3884 4.63643 18.3768 4.63623 18.3651 4.63623H8.11512C7.56284 4.63623 7.11513 5.08394 7.11513 5.63623C7.11512 6.18851 7.56284 6.63623 8.11512 6.63623Z" fill="#6F7381"/>
</svg>
