<svg width="24" height="24" viewBox="0 0 24 24" fill="none" xmlns="http://www.w3.org/2000/svg">
<path d="M18.5415 13.0453L13.0008 18.586V3.00024C13.0008 2.44796 12.5531 2.00024 12.0008 2.00024C11.4485 2.00024 11.0008 2.44796 11.0008 3.00024V18.586L5.46004 13.0453C5.06951 12.6548 4.43635 12.6548 4.04582 13.0453C3.6553 13.4358 3.6553 14.069 4.04582 14.4595L11.2937 21.7074C11.6842 22.0979 12.3174 22.0979 12.7079 21.7074L19.9557 14.4595C20.1517 14.2636 20.2493 14.0066 20.2486 13.7497C20.2484 13.6867 20.2423 13.6236 20.2303 13.5614C20.1937 13.3723 20.1022 13.1917 19.9557 13.0453C19.5652 12.6548 18.932 12.6548 18.5415 13.0453Z" fill="#6F7381"/>
</svg>
