<svg width="24" height="24" viewBox="0 0 24 24" fill="none" xmlns="http://www.w3.org/2000/svg">
<path fill-rule="evenodd" clip-rule="evenodd" d="M9 1C7.89543 1 7 1.89543 7 3V5H3C2.44772 5 2 5.44772 2 6C2 6.55229 2.44772 7 3 7H4.11765L4.88926 20.1174C4.95145 21.1745 5.82686 22 6.88581 22H17.1142C18.1731 22 19.0486 21.1745 19.1107 20.1174L19.8824 7H21C21.5523 7 22 6.55229 22 6C22 5.44772 21.5523 5 21 5H17V3C17 1.89543 16.1046 1 15 1H9ZM15 5V3H9V5H15ZM9.75 10C10.3023 10 10.75 10.4477 10.75 11V16C10.75 16.5523 10.3023 17 9.75 17C9.19772 17 8.75 16.5523 8.75 16V11C8.75 10.4477 9.19772 10 9.75 10ZM15.25 11C15.25 10.4477 14.8023 10 14.25 10C13.6977 10 13.25 10.4477 13.25 11V16C13.25 16.5523 13.6977 17 14.25 17C14.8023 17 15.25 16.5523 15.25 16V11Z" fill="#6F7381"/>
</svg>
