<svg width="24" height="24" viewBox="0 0 24 24" fill="none" xmlns="http://www.w3.org/2000/svg">
<path fill-rule="evenodd" clip-rule="evenodd" d="M7 5V4C7 2.34315 8.34315 1 10 1H14C15.6569 1 17 2.34315 17 4V5H20C21.1046 5 22 5.89543 22 7V8.5L18.3396 9.87266C18.115 9.95687 17.8772 10 17.6373 10H6.36267C6.12285 10 5.88498 9.95687 5.66042 9.87266L2 8.5V7C2 5.89543 2.89543 5 4 5H7ZM9 4C9 3.44772 9.44772 3 10 3H14C14.5523 3 15 3.44772 15 4V5H9V4Z" fill="#6F7381"/>
<path d="M22 10.636L19.0418 11.7453C18.5927 11.9137 18.117 12 17.6373 12H17V13C17 13.5523 16.5523 14 16 14C15.4477 14 15 13.5523 15 13V12H9V13C9 13.5523 8.55229 14 8 14C7.44772 14 7 13.5523 7 13V12H6.36267C5.88302 12 5.40728 11.9137 4.95818 11.7453L2 10.636V19C2 20.1046 2.89543 21 4 21H20C21.1046 21 22 20.1046 22 19V10.636Z" fill="#6F7381"/>
</svg>
