<svg width="24" height="24" viewBox="0 0 24 24" fill="none" xmlns="http://www.w3.org/2000/svg">
<path d="M21.9226 2.99511C22.0049 2.44898 21.5498 1.99616 21.0055 2.09003C17.6911 2.66165 13.4071 5.88185 10.6806 9.53172C12.4214 10.2539 13.8076 11.6584 14.5058 13.4116C18.1678 10.7615 21.389 6.5405 21.9226 2.99511Z" fill="#6F7381"/>
<path d="M3.00003 16.0001C3.00003 13.2387 5.23861 11.0001 8.00003 11.0001C10.7615 11.0001 13 13.2387 13 16.0001C13 18.7615 10.7615 21.0001 8.00003 21.0001H2.69374C2.35246 21.0001 2.11148 20.6658 2.2194 20.342L2.69213 18.9238C2.89606 18.312 3.00003 17.6713 3.00003 17.0265V16.0001Z" fill="#6F7381"/>
</svg>
