<svg width="24" height="24" viewBox="0 0 24 24" fill="none" xmlns="http://www.w3.org/2000/svg">
<path d="M16.2857 13.7308C16.2857 15.4486 17.7276 16.8462 19.5 16.8462H22V19.6154C22 20.3802 21.3605 21 20.5714 21H13.4286V16.0078C14.0588 15.7405 14.5 15.1325 14.5 14.4231C14.5 13.4672 13.7005 12.6923 12.7143 12.6923C11.7281 12.6923 10.9286 13.4672 10.9286 14.4231C10.9286 15.1325 11.3698 15.7403 12 16.0078V21H9.85714V17.5385C9.85714 17.2998 9.73024 17.0781 9.52119 16.9516L8.04548 16.0576C8.21095 14.9582 7.32857 14.0769 6.28571 14.0769C5.29952 14.0769 4.5 14.8518 4.5 15.8077C4.5 17.2101 6.12452 18.0127 7.29405 17.235L8.42857 17.9225V21H3.42857C2.63952 21 2 20.3802 2 19.6154V5.42308C2 4.08485 3.11929 3 4.5 3H18.25C18.7431 3 19.1429 3.38746 19.1429 3.86538C19.1429 4.34331 18.7431 4.73077 18.25 4.73077H4.67857C4.18762 4.73077 3.78571 5.12031 3.78571 5.59615C3.78571 6.072 4.18762 6.46154 4.67857 6.46154H20.5714C21.3605 6.46154 22 7.08138 22 7.84615V10.6154H19.5C17.7276 10.6154 16.2857 12.0129 16.2857 13.7308Z" fill="#6F7381"/>
<path d="M19.5 12H22V15.4615H19.5C18.5155 15.4615 17.7143 14.6855 17.7143 13.7308C17.7143 12.7761 18.5155 12 19.5 12Z" fill="#6F7381"/>
</svg>
