<svg width="24" height="24" viewBox="0 0 24 24" fill="none" xmlns="http://www.w3.org/2000/svg">
<path d="M15.5907 10.0003L13.005 12.586V3.00024C13.005 2.96573 13.0032 2.93162 12.9998 2.898C12.9486 2.39374 12.5227 2.00024 12.005 2.00024C11.4527 2.00024 11.005 2.44796 11.005 3.00024V12.586L8.41917 10.0002C8.02865 9.6097 7.39548 9.6097 7.00496 10.0002C6.61443 10.3907 6.61443 11.0239 7.00496 11.4144L11.2979 15.7073C11.4854 15.8949 11.7398 16.0002 12.005 16.0002C12.2702 16.0002 12.5245 15.8949 12.7121 15.7073L17.005 11.4145C17.0538 11.3657 17.0965 11.313 17.1331 11.2576C17.3894 10.8694 17.3467 10.342 17.005 10.0003C16.6144 9.60973 15.9813 9.60973 15.5907 10.0003Z" fill="#6F7381"/>
<path d="M4.00488 14.0003C4.55717 14.0003 5.00488 14.448 5.00488 15.0003V19.0003H19.0049V15.0003C19.0049 14.448 19.4526 14.0003 20.0049 14.0003C20.5572 14.0003 21.0049 14.448 21.0049 15.0003V19.0003C21.0049 20.1049 20.1095 21.0003 19.0049 21.0003H5.00488C3.90031 21.0003 3.00488 20.1049 3.00488 19.0003V15.0003C3.00488 14.448 3.4526 14.0003 4.00488 14.0003Z" fill="#6F7381"/>
</svg>
