<svg width="24" height="24" viewBox="0 0 24 24" fill="none" xmlns="http://www.w3.org/2000/svg">
<path d="M10.8017 5.4593L17.3424 12L10.8017 18.5408C10.7528 18.5896 10.7101 18.6422 10.6735 18.6976C10.4172 19.0858 10.46 19.6133 10.8017 19.955C11.1922 20.3455 11.8253 20.3455 12.2159 19.955L19.4638 12.7071C19.6513 12.5196 19.7567 12.2653 19.7567 12C19.7567 11.7348 19.6513 11.4805 19.4638 11.2929L12.2159 4.04509C11.8253 3.65457 11.1922 3.65457 10.8017 4.04509C10.4111 4.43561 10.4111 5.06878 10.8017 5.4593Z" fill="#6F7381"/>
<path d="M3.80174 5.4593L10.3424 12L3.80174 18.5408C3.75284 18.5896 3.71014 18.6422 3.67354 18.6976C3.41724 19.0858 3.46004 19.6133 3.80174 19.955C4.19224 20.3455 4.82534 20.3455 5.21594 19.955L12.4638 12.7071C12.6513 12.5196 12.7567 12.2653 12.7567 12C12.7567 11.7348 12.6513 11.4805 12.4638 11.2929L5.21594 4.04509C4.82534 3.65457 4.19224 3.65457 3.80174 4.04509C3.41114 4.43561 3.41114 5.06878 3.80174 5.4593Z" fill="#6F7381"/>
</svg>
