<svg width="20" height="20" viewBox="0 0 20 20" fill="none" xmlns="http://www.w3.org/2000/svg">
<path d="M11.3889 16.6667C9.9321 16.6667 8.6358 16.2531 7.5 15.426C6.3642 14.5988 5.56173 13.5309 5.09259 12.2223H2.5V10.7408H4.75926C4.72222 10.4445 4.70691 10.1697 4.71333 9.91634C4.71975 9.663 4.73506 9.44399 4.75926 9.2593H2.5V7.77782H5.09259C5.56173 6.46918 6.3642 5.40128 7.5 4.57411C8.6358 3.74695 9.9321 3.33337 11.3889 3.33337C12.2407 3.33337 13.0464 3.48473 13.8059 3.78745C14.5654 4.09016 15.2412 4.50671 15.8333 5.03708L14.7778 6.07411C14.321 5.67905 13.8057 5.37041 13.2319 5.14819C12.658 4.92597 12.0437 4.81486 11.3889 4.81486C10.3395 4.81486 9.40123 5.08967 8.57407 5.6393C7.74691 6.18893 7.12346 6.90177 6.7037 7.77782H11.3889V9.2593H6.25926C6.20988 9.59263 6.19136 9.88597 6.2037 10.1393C6.21605 10.3926 6.23457 10.5931 6.25926 10.7408H11.3889V12.2223H6.7037C7.12346 13.0988 7.74691 13.8119 8.57407 14.3615C9.40123 14.9112 10.3395 15.1857 11.3889 15.1852C12.0432 15.1852 12.6575 15.0741 13.2319 14.8519C13.8062 14.6297 14.3215 14.321 14.7778 13.926L15.8333 14.963C15.2407 15.4939 14.5647 15.9107 13.8052 16.2134C13.0457 16.5161 12.2402 16.6672 11.3889 16.6667Z" fill="#6F7381"/>
</svg>
