<svg width="24" height="24" viewBox="0 0 24 24" fill="none" xmlns="http://www.w3.org/2000/svg">
<path d="M15.0008 12.2154C17.5149 12.2154 19.553 10.1773 19.553 7.66323C19.553 5.14915 17.5149 3.11108 15.0008 3.11108C12.4867 3.11108 10.4487 5.14915 10.4487 7.66323C10.4487 10.1773 12.4867 12.2154 15.0008 12.2154Z" fill="#B0B1BA"/>
<path d="M22.961 15.662C22.6655 13.8011 20.0932 13.1766 18.2579 12.5864C17.3794 13.3334 16.2439 13.7867 15.0008 13.7867C13.7571 13.7867 12.6219 13.3334 11.7431 12.5864C9.90844 13.177 7.33573 13.8014 7.03892 15.662C6.51274 18.9718 11.4346 20.8889 15.0005 20.8889C18.566 20.8886 23.4879 18.9718 22.961 15.662Z" fill="#B0B1BA"/>
<path d="M2.4382 12.2791V10.5684C2.4382 9.16562 3.51685 8.03654 4.857 8.03654L6.49132 8.03654L6.36057 8.17339C6.06639 8.48133 6.06639 8.96033 6.36057 9.26826C6.49132 9.40512 6.68744 9.50776 6.88355 9.50776C7.07967 9.50776 7.24311 9.43933 7.40654 9.26826L8.77937 7.79704C9.07354 7.4891 9.07354 7.0101 8.77937 6.70217L7.37385 5.23095C7.07967 4.92302 6.62206 4.92302 6.32789 5.23095C6.03371 5.53888 6.03371 6.01788 6.32789 6.32581L6.49132 6.49688L4.857 6.49688C2.73238 6.49688 1 8.31025 1 10.5342V12.2449C1 12.6555 1.32687 12.9976 1.7191 12.9976C2.11134 13.0319 2.4382 12.6897 2.4382 12.2791Z" fill="#242526"/>
</svg>
