<svg width="24" height="24" viewBox="0 0 24 24" fill="none" xmlns="http://www.w3.org/2000/svg">
<path d="M15.7209 6.4382H17.4316C18.8344 6.4382 19.9635 7.51685 19.9635 8.857V10.4913L19.8266 10.3606C19.5187 10.0664 19.0397 10.0664 18.7317 10.3606C18.5949 10.4913 18.4922 10.6874 18.4922 10.8836C18.4922 11.0797 18.5607 11.2431 18.7317 11.4065L20.203 12.7794C20.5109 13.0735 20.9899 13.0735 21.2978 12.7794L22.7691 11.3739C23.077 11.0797 23.077 10.6221 22.7691 10.3279C22.4611 10.0337 21.9821 10.0337 21.6742 10.3279L21.5031 10.4913V8.857C21.5031 6.73238 19.6897 5 17.4658 5H15.7551C15.3445 5 15.0024 5.32687 15.0024 5.7191C14.9681 6.11134 15.3103 6.4382 15.7209 6.4382Z" fill="#242526"/>
<path d="M9.00081 12.2154C11.5149 12.2154 13.553 10.1773 13.553 7.66323C13.553 5.14915 11.5149 3.11108 9.00081 3.11108C6.48673 3.11108 4.44867 5.14915 4.44867 7.66323C4.44867 10.1773 6.48673 12.2154 9.00081 12.2154Z" fill="#B0B1BA"/>
<path d="M16.961 15.662C16.6655 13.8011 14.0932 13.1766 12.2579 12.5864C11.3794 13.3334 10.2439 13.7867 9.00081 13.7867C7.75707 13.7867 6.62186 13.3334 5.74306 12.5864C3.90844 13.177 1.33573 13.8014 1.03892 15.662C0.512735 18.9718 5.43461 20.8889 9.00047 20.8889C12.566 20.8886 17.4879 18.9718 16.961 15.662Z" fill="#B0B1BA"/>
</svg>
