<svg width="24" height="24" viewBox="0 0 24 24" fill="none" xmlns="http://www.w3.org/2000/svg">
<path d="M11.4431 13.508C13.6453 13.508 15.4305 11.7476 15.4305 9.57612C15.4305 7.40461 13.6453 5.64425 11.4431 5.64425C9.24097 5.64425 7.45575 7.40461 7.45575 9.57612C7.45575 11.7476 9.24097 13.508 11.4431 13.508Z" fill="#6F7381"/>
<path d="M18.4158 16.4853C18.157 14.8779 15.9038 14.3385 14.2961 13.8288C13.5267 14.474 12.532 14.8655 11.4432 14.8655C10.3537 14.8655 9.35935 14.474 8.58958 13.8288C6.98256 14.3388 4.72903 14.8782 4.46904 16.4853C4.00813 19.3441 8.31939 21 11.4429 21C14.566 20.9997 18.8773 19.3441 18.4158 16.4853Z" fill="#6F7381"/>
<path d="M5.55321 5.91654C5.4652 5.98512 5.39084 6.0421 5.34373 6.07675C3.51496 7.42181 3.00715 9.86209 4.05722 11.7844C4.1631 11.9782 4.21172 12.0363 4.21172 12.0363C4.32844 12.2115 4.28533 12.4493 4.11599 12.5739L3.51417 13.0165C3.34224 13.143 3.11062 13.1033 2.99103 12.9322C2.99103 12.9322 2.96154 12.8995 2.85409 12.7222C1.28066 10.1266 1.92309 6.72792 4.43572 4.87989C4.48823 4.84126 4.5949 4.75867 4.71855 4.66134L3.46588 4.48245C3.25382 4.45216 3.11401 4.26167 3.14426 4.05566L3.2518 3.32349C3.28252 3.11432 3.47421 2.9744 3.68098 3.00393L6.68436 3.43284C7.09891 3.49204 7.38637 3.87095 7.32642 4.27915L6.89207 7.23651C6.86215 7.44023 6.6683 7.58095 6.45909 7.55107L5.71553 7.44488C5.50309 7.41454 5.36106 7.22484 5.39113 7.02014L5.55321 5.91654Z" fill="#6F7381"/>
<path d="M18.656 10.7011C18.6968 10.5981 18.7318 10.5119 18.7547 10.4585C19.6432 8.38641 18.8305 6.0277 16.9391 4.89245C16.7484 4.77798 16.6766 4.75208 16.6766 4.75208C16.4861 4.65909 16.4014 4.43236 16.4837 4.2405L16.7761 3.55861C16.8596 3.3638 17.0798 3.28259 17.2707 3.37066C17.2707 3.37066 17.3129 3.38415 17.4965 3.48355C20.1846 4.93901 21.3724 8.19173 20.1516 11.0386C20.1261 11.0981 20.0764 11.2226 20.0196 11.3682L21.1922 10.8982C21.3907 10.8186 21.609 10.9133 21.6885 11.1062L21.971 11.7915C22.0517 11.9873 21.958 12.2036 21.7645 12.2811L18.9531 13.408C18.5651 13.5635 18.1228 13.3799 17.9653 12.9978L16.8242 10.2295C16.7456 10.0388 16.8407 9.82078 17.0366 9.74228L17.7326 9.4633C17.9314 9.3836 18.1512 9.4765 18.2302 9.66811L18.656 10.7011Z" fill="#6F7381"/>
</svg>
