<svg width="20" height="20" viewBox="0 0 20 20" fill="none" xmlns="http://www.w3.org/2000/svg">
<path fill-rule="evenodd" clip-rule="evenodd" d="M16.6667 6.52353C16.6667 6.0815 16.4911 5.65758 16.1785 5.34501L12.9882 2.15466C12.6756 1.8421 12.2517 1.6665 11.8097 1.6665H5.00004C4.07957 1.6665 3.33337 2.4127 3.33337 3.33317V16.6665C3.33337 17.5869 4.07957 18.3332 5.00004 18.3332H15C15.9205 18.3332 16.6667 17.5869 16.6667 16.6665V6.52353ZM12.9167 9.16653C13.377 9.16653 13.75 8.79345 13.75 8.33317C13.75 7.87294 13.377 7.49984 12.9167 7.49984H7.08337C6.62314 7.49984 6.25004 7.87294 6.25004 8.33317C6.25004 8.79345 6.62314 9.16653 7.08337 9.16653H12.9167ZM7.08337 12.9165C6.62314 12.9165 6.25004 12.5434 6.25004 12.0832C6.25004 11.6229 6.62314 11.2499 7.08337 11.2499H11.25C11.7103 11.2499 12.0834 11.6229 12.0834 12.0832C12.0834 12.5434 11.7103 12.9165 11.25 12.9165H7.08337Z" fill="#B0B1BA"/>
</svg>
