<svg width="24" height="24" viewBox="0 0 24 24" fill="none" xmlns="http://www.w3.org/2000/svg">
<path fill-rule="evenodd" clip-rule="evenodd" d="M23.04 12.2876C23.04 11.4721 22.9668 10.688 22.8309 9.9353H12V14.3837H18.1891C17.9225 15.8212 17.1123 17.0392 15.8943 17.8546V20.7401H19.6109C21.7855 18.738 23.04 15.7898 23.04 12.2876Z" fill="#4285F4"/>
<path fill-rule="evenodd" clip-rule="evenodd" d="M11.9999 23.5259C15.1049 23.5259 17.7081 22.4962 19.6108 20.7398L15.8942 17.8543C14.8645 18.5443 13.5472 18.9521 11.9999 18.9521C9.00469 18.9521 6.46946 16.9291 5.56514 14.2109H1.7231V17.1905C3.61537 20.9489 7.50446 23.5259 11.9999 23.5259Z" fill="#34A853"/>
<path fill-rule="evenodd" clip-rule="evenodd" d="M5.56523 14.2111C5.33523 13.5211 5.20455 12.7841 5.20455 12.0261C5.20455 11.2682 5.33523 10.5311 5.56523 9.84112V6.86157H1.72318C0.944318 8.41407 0.5 10.1704 0.5 12.0261C0.5 13.8818 0.944318 15.6382 1.72318 17.1907L5.56523 14.2111Z" fill="#FBBC05"/>
<path fill-rule="evenodd" clip-rule="evenodd" d="M11.9999 5.09999C13.6883 5.09999 15.2042 5.68021 16.3961 6.81976L19.6945 3.52135C17.7029 1.66567 15.0997 0.526123 11.9999 0.526123C7.50446 0.526123 3.61537 3.10317 1.7231 6.86158L5.56514 9.84112C6.46946 7.12294 9.00469 5.09999 11.9999 5.09999Z" fill="#EA4335"/>
</svg>
