<svg width="24" height="24" viewBox="0 0 24 24" fill="none" xmlns="http://www.w3.org/2000/svg">
<path d="M9.5 3C10.3284 3 11 3.67157 11 4.5V9.5C11 10.3284 10.3284 11 9.5 11H4.5C3.67157 11 3 10.3284 3 9.5V4.5C3 3.67157 3.67157 3 4.5 3H9.5Z" fill="#6F7381"/>
<path d="M13 4.5C13 3.67157 13.6716 3 14.5 3H19.5C20.3284 3 21 3.67157 21 4.5V9.5C21 10.3284 20.3284 11 19.5 11H14.5C13.6716 11 13 10.3284 13 9.5V4.5Z" fill="#6F7381"/>
<path d="M21 14.5C21 13.6716 20.3284 13 19.5 13H14.5C13.6716 13 13 13.6716 13 14.5V19.5C13 20.3284 13.6716 21 14.5 21H19.5C20.3284 21 21 20.3284 21 19.5V14.5Z" fill="#6F7381"/>
<path d="M11 19.5C11 20.3284 10.3284 21 9.5 21H4.5C3.67157 21 3 20.3284 3 19.5V14.5C3 13.6716 3.67157 13 4.5 13H9.5C10.3284 13 11 13.6716 11 14.5V19.5Z" fill="#6F7381"/>
</svg>
