<svg width="24" height="24" viewBox="0 0 24 24" fill="none" xmlns="http://www.w3.org/2000/svg">
<path fill-rule="evenodd" clip-rule="evenodd" d="M9.22811 2.01316C9.43953 2.03879 9.6437 2.10474 9.82893 2.20723C10.0142 2.30972 10.1768 2.44674 10.3077 2.61047C10.4385 2.7742 10.5349 2.96142 10.5913 3.16144C10.6478 3.36145 10.6632 3.57034 10.6368 3.77617L10.2562 6.73803H14.5546L14.9859 3.38462C15.0393 2.9691 15.26 2.59123 15.5995 2.33413C15.9389 2.07703 16.3694 1.96176 16.7962 2.01368C17.223 2.06561 17.6111 2.28047 17.8752 2.611C18.1393 2.94153 18.2577 3.36065 18.2043 3.77617L17.8238 6.73803H20.3784C20.8085 6.73803 21.2209 6.90437 21.525 7.20045C21.8291 7.49654 22 7.89811 22 8.31684C22 8.73557 21.8291 9.13715 21.525 9.43323C21.2209 9.72932 20.8085 9.89566 20.3784 9.89566H17.4184L16.8778 14.1058H19.8378C20.2679 14.1058 20.6804 14.2722 20.9845 14.5683C21.2886 14.8643 21.4595 15.2659 21.4595 15.6847C21.4595 16.1034 21.2886 16.505 20.9845 16.801C20.6804 17.0971 20.2679 17.2635 19.8378 17.2635H16.4724L16.0422 20.6169C15.9888 21.0324 15.7681 21.4103 15.4287 21.6674C15.0892 21.9245 14.6587 22.0397 14.2319 21.9878C13.8051 21.9359 13.417 21.721 13.1529 21.3905C12.8888 21.06 12.7705 20.6408 12.8238 20.2253L13.2032 17.2635H8.90486L8.47459 20.6169C8.44819 20.8226 8.38042 21.0213 8.27515 21.2015C8.16989 21.3818 8.02919 21.5401 7.86109 21.6674C7.69299 21.7947 7.50078 21.8885 7.29544 21.9435C7.0901 21.9985 6.87565 22.0135 6.66432 21.9878C6.453 21.9621 6.24895 21.8961 6.06382 21.7936C5.87869 21.6911 5.71611 21.5542 5.58535 21.3905C5.4546 21.2268 5.35823 21.0397 5.30176 20.8398C5.24529 20.6399 5.22981 20.4311 5.25622 20.2253L5.63568 17.2635H3.62162C3.19154 17.2635 2.77908 17.0971 2.47496 16.801C2.17085 16.505 2 16.1034 2 15.6847C2 15.2659 2.17085 14.8643 2.47496 14.5683C2.77908 14.2722 3.19154 14.1058 3.62162 14.1058H6.04108L6.58162 9.89566H4.16216C3.73208 9.89566 3.31962 9.72932 3.0155 9.43323C2.71139 9.13715 2.54054 8.73557 2.54054 8.31684C2.54054 7.89811 2.71139 7.49654 3.0155 7.20045C3.31962 6.90437 3.73208 6.73803 4.16216 6.73803H6.98703L7.41838 3.38462C7.44458 3.17878 7.51219 2.97999 7.61733 2.7996C7.72247 2.61921 7.86309 2.46076 8.03115 2.3333C8.19922 2.20583 8.39143 2.11186 8.59681 2.05675C8.80219 2.00164 9.01671 1.98752 9.22811 2.01316ZM13.6108 14.1058L14.1514 9.89566H9.85189L9.31135 14.1058H13.6108Z" fill="#6F7381"/>
</svg>
