<svg width="24" height="24" viewBox="0 0 24 24" fill="none" xmlns="http://www.w3.org/2000/svg">
<path d="M8.00744 3C8.00744 1.89543 8.90287 1 10.0074 1C11.112 1 12.0074 1.89543 12.0074 3V8.00154L19.3058 9.50635C20.6998 9.79378 21.7 11.0212 21.7 12.4445V13H21.7074C21.7074 17.9706 17.5213 22 12.3574 22C8.68629 22 5.50931 19.9634 3.97933 17C3.94898 16.9412 3.91926 16.882 3.89021 16.8225L1.76251 12.5743C1.62513 12.3 1.58743 11.9865 1.65589 11.6874C2.01273 10.1286 3.97326 9.61181 5.05213 10.7922L6.87671 12.7884C6.99996 12.9232 7.17422 13 7.35689 13C7.71618 13 8.00744 12.7087 8.00744 12.3495V3Z" fill="#6F7381"/>
</svg>
