<svg width="32" height="32" viewBox="0 0 32 32" fill="none" xmlns="http://www.w3.org/2000/svg">
<path fill-rule="evenodd" clip-rule="evenodd" d="M29.3333 15.9998C29.3333 23.3636 23.3637 29.3332 16 29.3332C8.63619 29.3332 2.66666 23.3636 2.66666 15.9998C2.66666 8.63604 8.63619 2.6665 16 2.6665C23.3637 2.6665 29.3333 8.63604 29.3333 15.9998ZM14 13.3332C14 14.4377 13.1046 15.3332 12 15.3332C10.8954 15.3332 9.99999 14.4377 9.99999 13.3332C9.99999 12.2286 10.8954 11.3332 12 11.3332C13.1046 11.3332 14 12.2286 14 13.3332ZM20 15.3332C21.1045 15.3332 22 14.4377 22 13.3332C22 12.2286 21.1045 11.3332 20 11.3332C18.8955 11.3332 18 12.2286 18 13.3332C18 14.4377 18.8955 15.3332 20 15.3332ZM11.0103 19.3332C11.6223 18.9236 12.4417 19.1074 13.0064 19.5801C13.8173 20.2592 14.8612 20.6665 16 20.6665C17.1388 20.6665 18.1827 20.2592 18.9936 19.5801C19.5583 19.1074 20.3777 18.9236 20.9896 19.3332C21.6016 19.7428 21.7729 20.5817 21.2597 21.1097C19.9284 22.4797 18.064 23.3332 16 23.3332C13.936 23.3332 12.0716 22.4797 10.7402 21.1097C10.227 20.5817 10.3984 19.7428 11.0103 19.3332Z" fill="#3784FF"/>
</svg>
