<svg width="24" height="24" viewBox="0 0 24 24" fill="none" xmlns="http://www.w3.org/2000/svg">
<path fill-rule="evenodd" clip-rule="evenodd" d="M3 6.29959C3 5.50921 3.46547 4.79297 4.18772 4.47197L11.1877 1.36086C11.7049 1.13102 12.2951 1.13102 12.8123 1.36086L19.8123 4.47197C20.5345 4.79297 21 5.50921 21 6.29959V12.9999C21 18.8765 14.6569 21.934 12.621 22.7639C12.2203 22.9273 11.7798 22.9273 11.379 22.7639C9.34312 21.934 3 18.8765 3 12.9999V6.29959ZM16.5 8.49985C16.8905 8.89037 16.8905 9.52354 16.5 9.91406L11.7071 14.707C11.3166 15.0975 10.6834 15.0975 10.2929 14.707L8 12.4141C7.60948 12.0236 7.60948 11.3904 8 10.9999C8.39052 10.6093 9.02369 10.6093 9.41422 10.9999L11 12.5857L15.0858 8.49985C15.4763 8.10932 16.1095 8.10932 16.5 8.49985Z" fill="#6F7381"/>
</svg>
