<svg width="24" height="24" viewBox="0 0 24 24" fill="none" xmlns="http://www.w3.org/2000/svg">
<path d="M11.9999 4C11.9999 4.55228 11.5522 5 10.9999 5H4.99988L4.99988 19H10.9999C11.5522 19 11.9999 19.4477 11.9999 20C11.9999 20.5523 11.5522 21 10.9999 21H4.99988C3.89531 21 2.99988 20.1046 2.99988 19V5C2.99988 3.89543 3.89531 3 4.99988 3H10.9999C11.5522 3 11.9999 3.44772 11.9999 4Z" fill="#6F7381"/>
<path d="M15 15.5858L17.5857 13.0001H8.99993C8.44764 13.0001 7.99993 12.5524 7.99993 12.0001C7.99993 11.4478 8.44764 11.0001 8.99993 11.0001L17.5857 11.0001L14.9999 8.41428C14.6094 8.02375 14.6094 7.39059 14.9999 7.00006C15.3904 6.60954 16.0236 6.60954 16.4141 7.00006L20.707 11.293C20.8946 11.4805 20.9999 11.7349 20.9999 12.0001C20.9999 12.2653 20.8946 12.5197 20.707 12.7072L16.4142 17.0001C16.0236 17.3906 15.3905 17.3906 15 17.0001C14.6094 16.6095 14.6094 15.9764 15 15.5858Z" fill="#6F7381"/>
</svg>
