<svg width="24" height="24" viewBox="0 0 24 24" fill="none" xmlns="http://www.w3.org/2000/svg">
<path d="M8.41707 9.99968L12.0029 13.5855L15.5887 9.99968C15.9792 9.60916 16.6123 9.60916 17.0029 9.99968C17.0517 10.0485 17.0944 10.1011 17.131 10.1566C17.3873 10.5447 17.3446 11.0722 17.0029 11.4139L12.71 15.7068C12.5224 15.8943 12.2681 15.9997 12.0029 15.9997C11.7376 15.9997 11.4833 15.8943 11.2958 15.7068L7.00285 11.4139C6.61233 11.0234 6.61233 10.3902 7.00285 9.99968C7.05167 9.95087 7.10428 9.90815 7.15973 9.87154C7.54788 9.61526 8.07536 9.65797 8.41707 9.99968Z" fill="#6F7381"/>
</svg>
