<svg width="24" height="24" viewBox="0 0 24 24" fill="none" xmlns="http://www.w3.org/2000/svg">
<path d="M12.4637 5.4593L5.923 12L12.4637 18.5408C12.5126 18.5896 12.5553 18.6422 12.5919 18.6976C12.8482 19.0858 12.8054 19.6133 12.4637 19.955C12.0732 20.3455 11.4401 20.3455 11.0495 19.955L3.80168 12.7071C3.61415 12.5196 3.50879 12.2653 3.50879 12C3.50879 11.7348 3.61415 11.4805 3.80168 11.2929L11.0495 4.04509C11.4401 3.65457 12.0732 3.65457 12.4637 4.04509C12.8543 4.43561 12.8543 5.06878 12.4637 5.4593Z" fill="#6F7381"/>
<path d="M19.4637 5.4593L12.923 12L19.4637 18.5408C19.5126 18.5896 19.5553 18.6422 19.5919 18.6976C19.8482 19.0858 19.8054 19.6133 19.4637 19.955C19.0732 20.3455 18.4401 20.3455 18.0495 19.955L10.8017 12.7071C10.6141 12.5196 10.5088 12.2653 10.5088 12C10.5088 11.7348 10.6141 11.4805 10.8017 11.2929L18.0495 4.04509C18.4401 3.65457 19.0732 3.65457 19.4637 4.04509C19.8543 4.43561 19.8543 5.06878 19.4637 5.4593Z" fill="#6F7381"/>
</svg>
