<svg width="24" height="24" viewBox="0 0 24 24" fill="none" xmlns="http://www.w3.org/2000/svg">
<path d="M1 4.8C1 5.796 1.77579 6.6 2.73684 6.6H6.78947V19.2C6.78947 20.196 7.56526 21 8.52632 21C9.48737 21 10.2632 20.196 10.2632 19.2V6.6H14.3158C15.2768 6.6 16.0526 5.796 16.0526 4.8C16.0526 3.804 15.2768 3 14.3158 3H2.73684C1.77579 3 1 3.804 1 4.8ZM21.2632 9H14.3158C13.3547 9 12.5789 9.804 12.5789 10.8C12.5789 11.796 13.3547 12.6 14.3158 12.6H16.0526V19.2C16.0526 20.196 16.8284 21 17.7895 21C18.7505 21 19.5263 20.196 19.5263 19.2V12.6H21.2632C22.2242 12.6 23 11.796 23 10.8C23 9.804 22.2242 9 21.2632 9Z" fill="#6F7381"/>
</svg>
