<svg width="24" height="24" viewBox="0 0 24 24" fill="none" xmlns="http://www.w3.org/2000/svg">
<path fill-rule="evenodd" clip-rule="evenodd" d="M22 11C22 15.9706 17.5228 20 12 20C10.7314 20 9.51807 19.7874 8.40143 19.3997L3.617 20.5958C2.88462 20.7789 2.22123 20.1155 2.40432 19.3831L3.36471 15.5416C2.49724 14.2084 2 12.6565 2 11C2 6.02944 6.47715 2 12 2C17.5228 2 22 6.02944 22 11ZM11.2756 12.5065C10.9983 12.5065 10.7627 12.2794 10.7993 12.0046C10.8196 11.8526 10.8513 11.7447 10.8945 11.5978L10.9029 11.5692C10.9088 11.5489 10.915 11.5278 10.9213 11.5059C11.0204 11.1735 11.1642 10.9051 11.3528 10.7005C11.5414 10.496 11.7683 10.3106 12.0336 10.1444C12.2317 10.0166 12.4091 9.88388 12.5657 9.74648C12.7223 9.60908 12.847 9.45728 12.9396 9.29108C13.0323 9.12168 13.0787 8.93311 13.0787 8.72537C13.0787 8.50484 13.0259 8.31148 12.9205 8.14529C12.815 7.9791 12.6728 7.85126 12.4938 7.76177C12.318 7.67228 12.1231 7.62754 11.9089 7.62754C11.7012 7.62754 11.5046 7.67388 11.3193 7.76656C11.1339 7.85605 10.9821 7.99028 10.8638 8.16926C10.8251 8.22675 10.7923 8.28885 10.7652 8.35556C10.6641 8.60488 10.459 8.82604 10.19 8.82604H9.22877C8.94773 8.82604 8.71709 8.59326 8.7618 8.3158C8.82868 7.90051 8.96687 7.54325 9.17634 7.24401C9.46718 6.82533 9.8523 6.51372 10.3317 6.30918C10.8111 6.10143 11.34 5.99756 11.9185 5.99756C12.5545 5.99756 13.117 6.10303 13.606 6.31397C14.095 6.52171 14.4785 6.82374 14.7566 7.22004C15.0346 7.61635 15.1737 8.09416 15.1737 8.65346C15.1737 9.02738 15.1113 9.35978 14.9867 9.65058C14.8652 9.93828 14.6943 10.194 14.4737 10.4177C14.2532 10.6382 13.9927 10.838 13.6923 11.0169C13.4398 11.1672 13.2321 11.3238 13.0691 11.4868C12.9093 11.6498 12.7894 11.8383 12.7095 12.0525C12.7037 12.0687 12.6981 12.0851 12.6926 12.1015C12.6167 12.3313 12.4136 12.5065 12.1716 12.5065H11.2756ZM10.9022 15.7391C11.1291 15.9628 11.4023 16.0746 11.7219 16.0746C11.9265 16.0746 12.1151 16.0235 12.2876 15.9212C12.4602 15.8158 12.5993 15.6767 12.7047 15.5042C12.8134 15.3284 12.8693 15.135 12.8725 14.9241C12.8693 14.6109 12.7527 14.3424 12.5226 14.1187C12.2924 13.895 12.0256 13.7831 11.7219 13.7831C11.4023 13.7831 11.1291 13.895 10.9022 14.1187C10.6784 14.3424 10.5682 14.6109 10.5714 14.9241C10.5682 15.2405 10.6784 15.5121 10.9022 15.7391Z" fill="#6F7381"/>
</svg>
