<svg width="24" height="24" viewBox="0 0 24 24" fill="none" xmlns="http://www.w3.org/2000/svg">
<path d="M2.99994 7C2.99994 6.44772 3.44766 6 3.99994 6H19.9999C20.5522 6 20.9999 6.44772 20.9999 7C20.9999 7.55228 20.5522 8 19.9999 8H3.99994C3.44765 8 2.99994 7.55228 2.99994 7Z" fill="#6F7381"/>
<path d="M3.99994 11C3.44765 11 2.99994 11.4477 2.99994 12C2.99994 12.5522 3.44765 13 3.99994 13H12.9999C13.5522 13 13.9999 12.5522 13.9999 12C13.9999 11.4477 13.5522 11 12.9999 11H3.99994Z" fill="#6F7381"/>
<path d="M2.99994 17C2.99994 16.4477 3.44765 16 3.99994 16H15.9999C16.5522 16 16.9999 16.4477 16.9999 17C16.9999 17.5523 16.5522 18 15.9999 18H3.99994C3.44765 18 2.99994 17.5523 2.99994 17Z" fill="#6F7381"/>
</svg>
