<svg width="17" height="17" viewBox="0 0 17 17" fill="none" xmlns="http://www.w3.org/2000/svg">
<g clip-path="url(#clip0_17732_11907)">
<path fill-rule="evenodd" clip-rule="evenodd" d="M10.9477 1.89905C11.0653 1.54999 10.8781 1.16893 10.5207 1.07991C9.87367 0.918781 9.19687 0.833252 8.5 0.833252C7.80513 0.833252 7.13019 0.918292 6.48492 1.07853C6.12745 1.1673 5.93994 1.54823 6.05727 1.89737C6.17457 2.24645 6.5522 2.43101 6.91092 2.34774C7.2114 2.27799 7.51933 2.22759 7.83333 2.19792V3.20321C4.83337 3.53483 2.5 6.07822 2.5 9.16659C2.5 12.4803 5.18629 15.1666 8.5 15.1666C11.8137 15.1666 14.5 12.4803 14.5 9.16659C14.5 7.74992 14.009 6.44791 13.1879 5.42147L13.8037 4.80576C14.064 4.54541 14.064 4.1233 13.8037 3.86295C13.5433 3.6026 13.1212 3.6026 12.8609 3.86295L12.2451 4.47866C11.3819 3.78817 10.3239 3.33113 9.16667 3.20321V2.19792C9.48227 2.22774 9.7918 2.27851 10.0937 2.34883C10.4524 2.43234 10.8302 2.24804 10.9477 1.89905ZM7.83333 9.16659C7.83333 9.53479 8.1318 9.83325 8.5 9.83325C8.8682 9.83325 9.16667 9.53479 9.16667 9.16659V6.83325C9.16667 6.46507 8.8682 6.16659 8.5 6.16659C8.1318 6.16659 7.83333 6.46507 7.83333 6.83325V9.16659Z" fill="#242526"/>
</g>
<defs>
<clipPath id="clip0_17732_11907">
<rect width="16" height="16" fill="white" transform="translate(0.5 0.5)"/>
</clipPath>
</defs>
</svg>
