<svg width="24" height="24" viewBox="0 0 24 24" fill="none" xmlns="http://www.w3.org/2000/svg">
<path d="M15.5907 8.00022L13.005 5.41446V15.0002C13.005 15.5525 12.5573 16.0002 12.005 16.0002C11.4527 16.0002 11.005 15.5525 11.005 15.0002V5.41446L8.41917 8.00028C8.02865 8.3908 7.39548 8.3908 7.00496 8.00028C6.95614 7.95146 6.91343 7.89885 6.87682 7.8434C6.62054 7.45525 6.66325 6.92777 7.00496 6.58606L11.2979 2.29314C11.4854 2.1056 11.7398 2.00024 12.005 2.00024C12.2702 2.00024 12.5246 2.1056 12.7121 2.29314L17.005 6.586C17.3955 6.97653 17.3955 7.60969 17.005 8.00022C16.6144 8.39074 15.9813 8.39074 15.5907 8.00022Z" fill="#6F7381"/>
<path d="M4.00488 14.0003C4.55717 14.0003 5.00488 14.448 5.00488 15.0003V19.0003H19.0049V15.0003C19.0049 14.448 19.4526 14.0003 20.0049 14.0003C20.5572 14.0003 21.0049 14.448 21.0049 15.0003V19.0003C21.0049 20.1049 20.1095 21.0003 19.0049 21.0003H5.00488C3.90031 21.0003 3.00488 20.1049 3.00488 19.0003V15.0003C3.00488 14.448 3.4526 14.0003 4.00488 14.0003Z" fill="#6F7381"/>
</svg>
