<svg width="24" height="24" viewBox="0 0 24 24" fill="none" xmlns="http://www.w3.org/2000/svg">
<path d="M15.6667 8.85H17.5C17.5 6.2967 14.9746 5.1321 12.9167 4.8639V3H11.0833V4.8639C9.02542 5.1321 6.5 6.2967 6.5 8.85C6.5 11.2854 8.94383 12.5517 11.0833 12.837V17.31C9.756 17.0841 8.33333 16.3884 8.33333 15.15H6.5C6.5 17.4801 8.72292 18.8571 11.0833 19.1424V21H12.9167V19.137C14.9746 18.8688 17.5 17.7033 17.5 15.15C17.5 12.5967 14.9746 11.4321 12.9167 11.1639V6.69C14.1358 6.9051 15.6667 7.5369 15.6667 8.85ZM8.33333 8.85C8.33333 7.5369 9.86417 6.9051 11.0833 6.69V11.0091C9.82658 10.7814 8.33333 10.1073 8.33333 8.85ZM15.6667 15.15C15.6667 16.4631 14.1358 17.0949 12.9167 17.31V12.99C14.1358 13.2051 15.6667 13.8369 15.6667 15.15Z" fill="#6F7381"/>
</svg>
